<svg xmlns="http://www.w3.org/2000/svg" width="198.94" height="35" viewBox="0 0 198.94 35"><rect class="svg__rect" x="0" y="0" width="95.99" height="35" fill="#000506"/><rect class="svg__rect" x="93.99" y="0" width="104.94999999999999" height="35" fill="#C13B3A"/><path class="svg__text" d="M15.69 22L14.22 22L14.22 13.47L16.14 13.47L18.60 20.01L21.06 13.47L22.97 13.47L22.97 22L21.49 22L21.49 19.19L21.64 15.43L19.12 22L18.06 22L15.55 15.43L15.69 19.19L15.69 22ZM28.49 22L26.95 22L30.17 13.47L31.50 13.47L34.73 22L33.18 22L32.49 20.01L29.18 20.01L28.49 22ZM30.83 15.28L29.60 18.82L32.07 18.82L30.83 15.28ZM41.14 22L38.69 22L38.69 13.47L41.21 13.47Q42.34 13.47 43.21 13.97Q44.09 14.48 44.57 15.40Q45.05 16.33 45.05 17.52L45.05 17.52L45.05 17.95Q45.05 19.16 44.57 20.08Q44.08 21.00 43.19 21.50Q42.30 22 41.14 22L41.14 22ZM40.17 14.66L40.17 20.82L41.14 20.82Q42.30 20.82 42.93 20.09Q43.55 19.36 43.56 17.99L43.56 17.99L43.56 17.52Q43.56 16.13 42.96 15.40Q42.35 14.66 41.21 14.66L41.21 14.66L40.17 14.66ZM55.09 22L49.51 22L49.51 13.47L55.05 13.47L55.05 14.66L51.00 14.66L51.00 17.02L54.50 17.02L54.50 18.19L51.00 18.19L51.00 20.82L55.09 20.82L55.09 22ZM68.38 22L65.26 22L65.26 13.47L68.19 13.47Q69.64 13.47 70.39 14.05Q71.15 14.63 71.15 15.78L71.15 15.78Q71.15 16.36 70.83 16.83Q70.51 17.30 69.90 17.56L69.90 17.56Q70.60 17.75 70.97 18.26Q71.35 18.78 71.35 19.51L71.35 19.51Q71.35 20.71 70.58 21.36Q69.81 22 68.38 22L68.38 22ZM66.75 18.15L66.75 20.82L68.39 20.82Q69.09 20.82 69.48 20.47Q69.88 20.13 69.88 19.51L69.88 19.51Q69.88 18.18 68.52 18.15L68.52 18.15L66.75 18.15ZM66.75 14.66L66.75 17.06L68.20 17.06Q68.89 17.06 69.28 16.75Q69.67 16.43 69.67 15.86L69.67 15.86Q69.67 15.23 69.31 14.95Q68.95 14.66 68.19 14.66L68.19 14.66L66.75 14.66ZM77.86 18.86L75.00 13.47L76.64 13.47L78.61 17.51L80.57 13.47L82.21 13.47L79.35 18.86L79.35 22L77.86 22L77.86 18.86Z" fill="#FFFFFF"/><path class="svg__text" d="M110.56 22L108.18 22L108.18 13.60L112.02 13.60Q113.16 13.60 114.00 13.98Q114.84 14.35 115.30 15.06Q115.75 15.76 115.75 16.71L115.75 16.71Q115.75 17.62 115.33 18.30Q114.90 18.98 114.11 19.36L114.11 19.36L115.92 22L113.38 22L111.85 19.77L110.56 19.77L110.56 22ZM110.56 15.47L110.56 17.93L111.88 17.93Q112.61 17.93 112.98 17.61Q113.35 17.29 113.35 16.71L113.35 16.71Q113.35 16.12 112.98 15.79Q112.61 15.47 111.88 15.47L111.88 15.47L110.56 15.47ZM121.96 22L119.53 22L123.24 13.60L125.59 13.60L129.30 22L126.83 22L126.17 20.37L122.62 20.37L121.96 22ZM124.40 15.93L123.31 18.61L125.47 18.61L124.40 15.93ZM132.38 20.93L132.38 20.93L133.67 19.40Q134.34 20.27 135.11 20.27L135.11 20.27Q135.12 20.27 135.13 20.27L135.13 20.27Q135.64 20.27 135.91 19.96Q136.18 19.65 136.18 19.05L136.18 19.05L136.18 15.44L133.28 15.44L133.28 13.60L138.54 13.60L138.54 18.91Q138.54 20.54 137.71 21.36Q136.89 22.17 135.30 22.17L135.30 22.17Q134.37 22.17 133.61 21.85Q132.86 21.53 132.38 20.93ZM146.21 22L142.61 13.60L145.19 13.60L147.47 19.07L149.79 13.60L152.14 13.60L148.54 22L146.21 22ZM163.04 22L156.30 22L156.30 13.60L162.89 13.60L162.89 15.44L158.65 15.44L158.65 16.85L162.38 16.85L162.38 18.63L158.65 18.63L158.65 20.17L163.04 20.17L163.04 22ZM174.59 22L167.84 22L167.84 13.60L174.44 13.60L174.44 15.44L170.20 15.44L170.20 16.85L173.93 16.85L173.93 18.63L170.20 18.63L170.20 20.17L174.59 20.17L174.59 22ZM181.77 22L179.39 22L179.39 13.60L183.24 13.60Q184.38 13.60 185.22 13.98Q186.05 14.35 186.51 15.06Q186.97 15.76 186.97 16.71L186.97 16.71Q186.97 17.62 186.54 18.30Q186.11 18.98 185.32 19.36L185.32 19.36L187.13 22L184.59 22L183.07 19.77L181.77 19.77L181.77 22ZM181.77 15.47L181.77 17.93L183.09 17.93Q183.82 17.93 184.19 17.61Q184.57 17.29 184.57 16.71L184.57 16.71Q184.57 16.12 184.19 15.79Q183.82 15.47 183.09 15.47L183.09 15.47L181.77 15.47Z" fill="#FFFFFF" x="106.99"/></svg>